<svg xmlns="http://www.w3.org/2000/svg" xmlns:xlink="http://www.w3.org/1999/xlink" width="500" zoomAndPan="magnify" viewBox="0 0 375 374.999991" height="500" preserveAspectRatio="xMidYMid meet" version="1.0"><defs><filter x="0%" y="0%" width="100%" height="100%" id="106bd1adf0"><feColorMatrix values="0 0 0 0 1 0 0 0 0 1 0 0 0 0 1 0 0 0 1 0" color-interpolation-filters="sRGB"/></filter><g/><clipPath id="cdd6aa47cc"><path d="M 43.789062 43.789062 L 331.210938 43.789062 L 331.210938 331.210938 L 43.789062 331.210938 Z M 43.789062 43.789062 " clip-rule="nonzero"/></clipPath><clipPath id="fc4e33b040"><path d="M 187.5 43.789062 C 108.132812 43.789062 43.789062 108.132812 43.789062 187.5 C 43.789062 266.867188 108.132812 331.210938 187.5 331.210938 C 266.867188 331.210938 331.210938 266.867188 331.210938 187.5 C 331.210938 108.132812 266.867188 43.789062 187.5 43.789062 Z M 187.5 43.789062 " clip-rule="nonzero"/></clipPath><clipPath id="fc3bd0ad49"><path d="M 0.789062 0.789062 L 288.210938 0.789062 L 288.210938 288.210938 L 0.789062 288.210938 Z M 0.789062 0.789062 " clip-rule="nonzero"/></clipPath><clipPath id="ca1cee2c90"><path d="M 144.5 0.789062 C 65.132812 0.789062 0.789062 65.132812 0.789062 144.5 C 0.789062 223.867188 65.132812 288.210938 144.5 288.210938 C 223.867188 288.210938 288.210938 223.867188 288.210938 144.5 C 288.210938 65.132812 223.867188 0.789062 144.5 0.789062 Z M 144.5 0.789062 " clip-rule="nonzero"/></clipPath><clipPath id="7ecc03332e"><rect x="0" width="289" y="0" height="289"/></clipPath><clipPath id="7536312d89"><path d="M 7.238281 5.285156 L 369.488281 5.285156 L 369.488281 367.535156 L 7.238281 367.535156 Z M 7.238281 5.285156 " clip-rule="nonzero"/></clipPath><clipPath id="4b34158179"><path d="M 21.613281 19.660156 L 355.339844 19.660156 L 355.339844 353.386719 L 21.613281 353.386719 Z M 21.613281 19.660156 " clip-rule="nonzero"/></clipPath><clipPath id="d0c8a6a94e"><path d="M 188.476562 19.660156 C 96.320312 19.660156 21.613281 94.367188 21.613281 186.523438 C 21.613281 278.679688 96.320312 353.386719 188.476562 353.386719 C 280.632812 353.386719 355.339844 278.679688 355.339844 186.523438 C 355.339844 94.367188 280.632812 19.660156 188.476562 19.660156 Z M 188.476562 19.660156 " clip-rule="nonzero"/></clipPath><clipPath id="14dc699073"><path d="M 0.613281 0.660156 L 334.339844 0.660156 L 334.339844 334.386719 L 0.613281 334.386719 Z M 0.613281 0.660156 " clip-rule="nonzero"/></clipPath><clipPath id="332aa5ed21"><path d="M 167.476562 0.660156 C 75.320312 0.660156 0.613281 75.367188 0.613281 167.523438 C 0.613281 259.679688 75.320312 334.386719 167.476562 334.386719 C 259.632812 334.386719 334.339844 259.679688 334.339844 167.523438 C 334.339844 75.367188 259.632812 0.660156 167.476562 0.660156 Z M 167.476562 0.660156 " clip-rule="nonzero"/></clipPath><clipPath id="61596ff4af"><rect x="0" width="335" y="0" height="335"/></clipPath><mask id="be77cc5846"><g filter="url(#106bd1adf0)"><rect x="-37.5" width="450" fill="#000000" y="-37.499999" height="449.999989" fill-opacity="0.26"/></g></mask><clipPath id="a12326da47"><path d="M 260 134 L 338 134 L 338 163 L 260 163 Z M 260 134 " clip-rule="nonzero"/></clipPath><clipPath id="97953b1b2f"><path d="M 402.800781 140.132812 L 235.238281 394.382812 L -20.261719 225.996094 L 147.300781 -28.253906 Z M 402.800781 140.132812 " clip-rule="nonzero"/></clipPath><clipPath id="3991f5efaf"><path d="M 402.800781 140.132812 L 235.238281 394.382812 L -20.261719 225.996094 L 147.300781 -28.253906 Z M 402.800781 140.132812 " clip-rule="nonzero"/></clipPath><clipPath id="691e2bffb2"><path d="M 266 181 L 344 181 L 344 191 L 266 191 Z M 266 181 " clip-rule="nonzero"/></clipPath><clipPath id="322b430e26"><path d="M 402.800781 140.132812 L 235.238281 394.382812 L -20.261719 225.996094 L 147.300781 -28.253906 Z M 402.800781 140.132812 " clip-rule="nonzero"/></clipPath><clipPath id="69f7035377"><path d="M 402.800781 140.132812 L 235.238281 394.382812 L -20.261719 225.996094 L 147.300781 -28.253906 Z M 402.800781 140.132812 " clip-rule="nonzero"/></clipPath><clipPath id="e7a45fbab7"><path d="M 257 119 L 333 119 L 333 154 L 257 154 Z M 257 119 " clip-rule="nonzero"/></clipPath><clipPath id="84e86fe662"><path d="M 402.800781 140.132812 L 235.238281 394.382812 L -20.261719 225.996094 L 147.300781 -28.253906 Z M 402.800781 140.132812 " clip-rule="nonzero"/></clipPath><clipPath id="170f324cff"><path d="M 402.800781 140.132812 L 235.238281 394.382812 L -20.261719 225.996094 L 147.300781 -28.253906 Z M 402.800781 140.132812 " clip-rule="nonzero"/></clipPath><clipPath id="153f0c7e68"><path d="M 263 149 L 342 149 L 342 172 L 263 172 Z M 263 149 " clip-rule="nonzero"/></clipPath><clipPath id="23d7c47685"><path d="M 402.800781 140.132812 L 235.238281 394.382812 L -20.261719 225.996094 L 147.300781 -28.253906 Z M 402.800781 140.132812 " clip-rule="nonzero"/></clipPath><clipPath id="3be2fb83e4"><path d="M 402.800781 140.132812 L 235.238281 394.382812 L -20.261719 225.996094 L 147.300781 -28.253906 Z M 402.800781 140.132812 " clip-rule="nonzero"/></clipPath><clipPath id="fb19ae566c"><path d="M 182 31 L 202 31 L 202 85 L 182 85 Z M 182 31 " clip-rule="nonzero"/></clipPath><clipPath id="ef200e3ddc"><path d="M 402.800781 140.132812 L 235.238281 394.382812 L -20.261719 225.996094 L 147.300781 -28.253906 Z M 402.800781 140.132812 " clip-rule="nonzero"/></clipPath><clipPath id="5c0a1a35e0"><path d="M 402.800781 140.132812 L 235.238281 394.382812 L -20.261719 225.996094 L 147.300781 -28.253906 Z M 402.800781 140.132812 " clip-rule="nonzero"/></clipPath><clipPath id="f309f24d95"><path d="M 191 32 L 216 32 L 216 88 L 191 88 Z M 191 32 " clip-rule="nonzero"/></clipPath><clipPath id="6cb9f44c74"><path d="M 402.800781 140.132812 L 235.238281 394.382812 L -20.261719 225.996094 L 147.300781 -28.253906 Z M 402.800781 140.132812 " clip-rule="nonzero"/></clipPath><clipPath id="52ed799958"><path d="M 402.800781 140.132812 L 235.238281 394.382812 L -20.261719 225.996094 L 147.300781 -28.253906 Z M 402.800781 140.132812 " clip-rule="nonzero"/></clipPath><clipPath id="9e530055a3"><path d="M 254 105 L 326 105 L 326 145 L 254 145 Z M 254 105 " clip-rule="nonzero"/></clipPath><clipPath id="af4f4c7727"><path d="M 402.800781 140.132812 L 235.238281 394.382812 L -20.261719 225.996094 L 147.300781 -28.253906 Z M 402.800781 140.132812 " clip-rule="nonzero"/></clipPath><clipPath id="90e4e93ee0"><path d="M 402.800781 140.132812 L 235.238281 394.382812 L -20.261719 225.996094 L 147.300781 -28.253906 Z M 402.800781 140.132812 " clip-rule="nonzero"/></clipPath><clipPath id="f7e257d149"><path d="M 263 228 L 333 228 L 333 247 L 263 247 Z M 263 228 " clip-rule="nonzero"/></clipPath><clipPath id="b8c329a069"><path d="M 402.800781 140.132812 L 235.238281 394.382812 L -20.261719 225.996094 L 147.300781 -28.253906 Z M 402.800781 140.132812 " clip-rule="nonzero"/></clipPath><clipPath id="9056887bbf"><path d="M 402.800781 140.132812 L 235.238281 394.382812 L -20.261719 225.996094 L 147.300781 -28.253906 Z M 402.800781 140.132812 " clip-rule="nonzero"/></clipPath><clipPath id="572f2279d7"><path d="M 261 238 L 326 238 L 326 261 L 261 261 Z M 261 238 " clip-rule="nonzero"/></clipPath><clipPath id="fb4fbe733e"><path d="M 402.800781 140.132812 L 235.238281 394.382812 L -20.261719 225.996094 L 147.300781 -28.253906 Z M 402.800781 140.132812 " clip-rule="nonzero"/></clipPath><clipPath id="c872423101"><path d="M 402.800781 140.132812 L 235.238281 394.382812 L -20.261719 225.996094 L 147.300781 -28.253906 Z M 402.800781 140.132812 " clip-rule="nonzero"/></clipPath><clipPath id="85fbee3906"><path d="M 266 196 L 343 196 L 343 203 L 266 203 Z M 266 196 " clip-rule="nonzero"/></clipPath><clipPath id="b23b3e2b68"><path d="M 402.800781 140.132812 L 235.238281 394.382812 L -20.261719 225.996094 L 147.300781 -28.253906 Z M 402.800781 140.132812 " clip-rule="nonzero"/></clipPath><clipPath id="0850938c92"><path d="M 402.800781 140.132812 L 235.238281 394.382812 L -20.261719 225.996094 L 147.300781 -28.253906 Z M 402.800781 140.132812 " clip-rule="nonzero"/></clipPath><clipPath id="b581c7ef04"><path d="M 172 30 L 187 30 L 187 82 L 172 82 Z M 172 30 " clip-rule="nonzero"/></clipPath><clipPath id="a4aca128fa"><path d="M 402.800781 140.132812 L 235.238281 394.382812 L -20.261719 225.996094 L 147.300781 -28.253906 Z M 402.800781 140.132812 " clip-rule="nonzero"/></clipPath><clipPath id="abb5657a51"><path d="M 402.800781 140.132812 L 235.238281 394.382812 L -20.261719 225.996094 L 147.300781 -28.253906 Z M 402.800781 140.132812 " clip-rule="nonzero"/></clipPath><clipPath id="e2c168317c"><path d="M 232 286 L 266 286 L 266 320 L 232 320 Z M 232 286 " clip-rule="nonzero"/></clipPath><clipPath id="549c247818"><path d="M 402.800781 140.132812 L 235.238281 394.382812 L -20.261719 225.996094 L 147.300781 -28.253906 Z M 402.800781 140.132812 " clip-rule="nonzero"/></clipPath><clipPath id="0eafb99896"><path d="M 402.800781 140.132812 L 235.238281 394.382812 L -20.261719 225.996094 L 147.300781 -28.253906 Z M 402.800781 140.132812 " clip-rule="nonzero"/></clipPath><clipPath id="4a7cebf464"><path d="M 265 219 L 338 219 L 338 233 L 265 233 Z M 265 219 " clip-rule="nonzero"/></clipPath><clipPath id="a5c12699ae"><path d="M 402.800781 140.132812 L 235.238281 394.382812 L -20.261719 225.996094 L 147.300781 -28.253906 Z M 402.800781 140.132812 " clip-rule="nonzero"/></clipPath><clipPath id="47b6222221"><path d="M 402.800781 140.132812 L 235.238281 394.382812 L -20.261719 225.996094 L 147.300781 -28.253906 Z M 402.800781 140.132812 " clip-rule="nonzero"/></clipPath><clipPath id="5e018706f2"><path d="M 267 209 L 342 209 L 342 218 L 267 218 Z M 267 209 " clip-rule="nonzero"/></clipPath><clipPath id="518c0a23e2"><path d="M 402.800781 140.132812 L 235.238281 394.382812 L -20.261719 225.996094 L 147.300781 -28.253906 Z M 402.800781 140.132812 " clip-rule="nonzero"/></clipPath><clipPath id="24135a5948"><path d="M 402.800781 140.132812 L 235.238281 394.382812 L -20.261719 225.996094 L 147.300781 -28.253906 Z M 402.800781 140.132812 " clip-rule="nonzero"/></clipPath><clipPath id="8f72e2aa91"><path d="M 163 31 L 173 31 L 173 80 L 163 80 Z M 163 31 " clip-rule="nonzero"/></clipPath><clipPath id="08f359b670"><path d="M 402.800781 140.132812 L 235.238281 394.382812 L -20.261719 225.996094 L 147.300781 -28.253906 Z M 402.800781 140.132812 " clip-rule="nonzero"/></clipPath><clipPath id="a633b63ad9"><path d="M 402.800781 140.132812 L 235.238281 394.382812 L -20.261719 225.996094 L 147.300781 -28.253906 Z M 402.800781 140.132812 " clip-rule="nonzero"/></clipPath><clipPath id="769b8fb62b"><path d="M 66 93 L 73 93 L 73 103 L 66 103 Z M 66 93 " clip-rule="nonzero"/></clipPath><clipPath id="708c2fbc21"><path d="M 402.800781 140.132812 L 235.238281 394.382812 L -20.261719 225.996094 L 147.300781 -28.253906 Z M 402.800781 140.132812 " clip-rule="nonzero"/></clipPath><clipPath id="c0c700e27e"><path d="M 402.800781 140.132812 L 235.238281 394.382812 L -20.261719 225.996094 L 147.300781 -28.253906 Z M 402.800781 140.132812 " clip-rule="nonzero"/></clipPath><clipPath id="e84cdf0189"><path d="M 72 84 L 81 84 L 81 97 L 72 97 Z M 72 84 " clip-rule="nonzero"/></clipPath><clipPath id="750c9596db"><path d="M 402.800781 140.132812 L 235.238281 394.382812 L -20.261719 225.996094 L 147.300781 -28.253906 Z M 402.800781 140.132812 " clip-rule="nonzero"/></clipPath><clipPath id="c4c698faf7"><path d="M 402.800781 140.132812 L 235.238281 394.382812 L -20.261719 225.996094 L 147.300781 -28.253906 Z M 402.800781 140.132812 " clip-rule="nonzero"/></clipPath><clipPath id="71e4fd8c14"><path d="M 225 293 L 254 293 L 254 326 L 225 326 Z M 225 293 " clip-rule="nonzero"/></clipPath><clipPath id="84f5f096de"><path d="M 402.800781 140.132812 L 235.238281 394.382812 L -20.261719 225.996094 L 147.300781 -28.253906 Z M 402.800781 140.132812 " clip-rule="nonzero"/></clipPath><clipPath id="0c3fd85916"><path d="M 402.800781 140.132812 L 235.238281 394.382812 L -20.261719 225.996094 L 147.300781 -28.253906 Z M 402.800781 140.132812 " clip-rule="nonzero"/></clipPath><clipPath id="3d597443f1"><path d="M 55 112 L 58 112 L 58 115 L 55 115 Z M 55 112 " clip-rule="nonzero"/></clipPath><clipPath id="ec5b52f42a"><path d="M 402.800781 140.132812 L 235.238281 394.382812 L -20.261719 225.996094 L 147.300781 -28.253906 Z M 402.800781 140.132812 " clip-rule="nonzero"/></clipPath><clipPath id="3b45615a8a"><path d="M 402.800781 140.132812 L 235.238281 394.382812 L -20.261719 225.996094 L 147.300781 -28.253906 Z M 402.800781 140.132812 " clip-rule="nonzero"/></clipPath><clipPath id="9301f59d8b"><path d="M 80 76 L 89 76 L 89 93 L 80 93 Z M 80 76 " clip-rule="nonzero"/></clipPath><clipPath id="080658a95b"><path d="M 402.800781 140.132812 L 235.238281 394.382812 L -20.261719 225.996094 L 147.300781 -28.253906 Z M 402.800781 140.132812 " clip-rule="nonzero"/></clipPath><clipPath id="ba8fcc2961"><path d="M 402.800781 140.132812 L 235.238281 394.382812 L -20.261719 225.996094 L 147.300781 -28.253906 Z M 402.800781 140.132812 " clip-rule="nonzero"/></clipPath><clipPath id="3f424e7e36"><path d="M 60 102 L 66 102 L 66 109 L 60 109 Z M 60 102 " clip-rule="nonzero"/></clipPath><clipPath id="94e9dbf1e4"><path d="M 402.800781 140.132812 L 235.238281 394.382812 L -20.261719 225.996094 L 147.300781 -28.253906 Z M 402.800781 140.132812 " clip-rule="nonzero"/></clipPath><clipPath id="7f8daccb91"><path d="M 402.800781 140.132812 L 235.238281 394.382812 L -20.261719 225.996094 L 147.300781 -28.253906 Z M 402.800781 140.132812 " clip-rule="nonzero"/></clipPath><clipPath id="6f9daaff71"><path d="M 130 41 L 135 41 L 135 80 L 130 80 Z M 130 41 " clip-rule="nonzero"/></clipPath><clipPath id="82cc4ef9be"><path d="M 402.800781 140.132812 L 235.238281 394.382812 L -20.261719 225.996094 L 147.300781 -28.253906 Z M 402.800781 140.132812 " clip-rule="nonzero"/></clipPath><clipPath id="042bbf7778"><path d="M 402.800781 140.132812 L 235.238281 394.382812 L -20.261719 225.996094 L 147.300781 -28.253906 Z M 402.800781 140.132812 " clip-rule="nonzero"/></clipPath><clipPath id="5738e0c024"><path d="M 118 46 L 126 46 L 126 80 L 118 80 Z M 118 46 " clip-rule="nonzero"/></clipPath><clipPath id="749e86693f"><path d="M 402.800781 140.132812 L 235.238281 394.382812 L -20.261719 225.996094 L 147.300781 -28.253906 Z M 402.800781 140.132812 " clip-rule="nonzero"/></clipPath><clipPath id="8d6422323a"><path d="M 402.800781 140.132812 L 235.238281 394.382812 L -20.261719 225.996094 L 147.300781 -28.253906 Z M 402.800781 140.132812 " clip-rule="nonzero"/></clipPath><clipPath id="b68f076099"><path d="M 153 34 L 159 34 L 159 79 L 153 79 Z M 153 34 " clip-rule="nonzero"/></clipPath><clipPath id="1598cc45eb"><path d="M 402.800781 140.132812 L 235.238281 394.382812 L -20.261719 225.996094 L 147.300781 -28.253906 Z M 402.800781 140.132812 " clip-rule="nonzero"/></clipPath><clipPath id="8ad82b0556"><path d="M 402.800781 140.132812 L 235.238281 394.382812 L -20.261719 225.996094 L 147.300781 -28.253906 Z M 402.800781 140.132812 " clip-rule="nonzero"/></clipPath><clipPath id="4470ad1661"><path d="M 107 53 L 116 53 L 116 82 L 107 82 Z M 107 53 " clip-rule="nonzero"/></clipPath><clipPath id="5a43be3f30"><path d="M 402.800781 140.132812 L 235.238281 394.382812 L -20.261719 225.996094 L 147.300781 -28.253906 Z M 402.800781 140.132812 " clip-rule="nonzero"/></clipPath><clipPath id="bb0a57c304"><path d="M 402.800781 140.132812 L 235.238281 394.382812 L -20.261719 225.996094 L 147.300781 -28.253906 Z M 402.800781 140.132812 " clip-rule="nonzero"/></clipPath><clipPath id="0ceaeb6b2c"><path d="M 97 60 L 107 60 L 107 86 L 97 86 Z M 97 60 " clip-rule="nonzero"/></clipPath><clipPath id="ff2b10482d"><path d="M 402.800781 140.132812 L 235.238281 394.382812 L -20.261719 225.996094 L 147.300781 -28.253906 Z M 402.800781 140.132812 " clip-rule="nonzero"/></clipPath><clipPath id="fb99812d19"><path d="M 402.800781 140.132812 L 235.238281 394.382812 L -20.261719 225.996094 L 147.300781 -28.253906 Z M 402.800781 140.132812 " clip-rule="nonzero"/></clipPath><clipPath id="457b9398ac"><path d="M 88 68 L 98 68 L 98 89 L 88 89 Z M 88 68 " clip-rule="nonzero"/></clipPath><clipPath id="ac08f1685e"><path d="M 402.800781 140.132812 L 235.238281 394.382812 L -20.261719 225.996094 L 147.300781 -28.253906 Z M 402.800781 140.132812 " clip-rule="nonzero"/></clipPath><clipPath id="7913fba423"><path d="M 402.800781 140.132812 L 235.238281 394.382812 L -20.261719 225.996094 L 147.300781 -28.253906 Z M 402.800781 140.132812 " clip-rule="nonzero"/></clipPath><clipPath id="bd5ebcfad1"><path d="M 248 92 L 318 92 L 318 137 L 248 137 Z M 248 92 " clip-rule="nonzero"/></clipPath><clipPath id="3c01656d9d"><path d="M 402.800781 140.132812 L 235.238281 394.382812 L -20.261719 225.996094 L 147.300781 -28.253906 Z M 402.800781 140.132812 " clip-rule="nonzero"/></clipPath><clipPath id="7ca0ae5c34"><path d="M 402.800781 140.132812 L 235.238281 394.382812 L -20.261719 225.996094 L 147.300781 -28.253906 Z M 402.800781 140.132812 " clip-rule="nonzero"/></clipPath><clipPath id="fbf5f19020"><path d="M 253 255 L 310 255 L 310 285 L 253 285 Z M 253 255 " clip-rule="nonzero"/></clipPath><clipPath id="6baa4b13a1"><path d="M 402.800781 140.132812 L 235.238281 394.382812 L -20.261719 225.996094 L 147.300781 -28.253906 Z M 402.800781 140.132812 " clip-rule="nonzero"/></clipPath><clipPath id="afeebb0fc4"><path d="M 402.800781 140.132812 L 235.238281 394.382812 L -20.261719 225.996094 L 147.300781 -28.253906 Z M 402.800781 140.132812 " clip-rule="nonzero"/></clipPath><clipPath id="d5597e1a1e"><path d="M 243 80 L 308 80 L 308 129 L 243 129 Z M 243 80 " clip-rule="nonzero"/></clipPath><clipPath id="3bca1ba7c3"><path d="M 402.800781 140.132812 L 235.238281 394.382812 L -20.261719 225.996094 L 147.300781 -28.253906 Z M 402.800781 140.132812 " clip-rule="nonzero"/></clipPath><clipPath id="0ef533a03c"><path d="M 402.800781 140.132812 L 235.238281 394.382812 L -20.261719 225.996094 L 147.300781 -28.253906 Z M 402.800781 140.132812 " clip-rule="nonzero"/></clipPath><clipPath id="3a3f9c90f8"><path d="M 199 34 L 231 34 L 231 92 L 199 92 Z M 199 34 " clip-rule="nonzero"/></clipPath><clipPath id="74e7b53d80"><path d="M 402.800781 140.132812 L 235.238281 394.382812 L -20.261719 225.996094 L 147.300781 -28.253906 Z M 402.800781 140.132812 " clip-rule="nonzero"/></clipPath><clipPath id="ae8484ed80"><path d="M 402.800781 140.132812 L 235.238281 394.382812 L -20.261719 225.996094 L 147.300781 -28.253906 Z M 402.800781 140.132812 " clip-rule="nonzero"/></clipPath><clipPath id="1c1400dfde"><path d="M 201 309 L 216 309 L 216 336 L 201 336 Z M 201 309 " clip-rule="nonzero"/></clipPath><clipPath id="cdf0629d9f"><path d="M 402.800781 140.132812 L 235.238281 394.382812 L -20.261719 225.996094 L 147.300781 -28.253906 Z M 402.800781 140.132812 " clip-rule="nonzero"/></clipPath><clipPath id="f873d59fbc"><path d="M 402.800781 140.132812 L 235.238281 394.382812 L -20.261719 225.996094 L 147.300781 -28.253906 Z M 402.800781 140.132812 " clip-rule="nonzero"/></clipPath><clipPath id="ed3d542cdf"><path d="M 192 313 L 204 313 L 204 337 L 192 337 Z M 192 313 " clip-rule="nonzero"/></clipPath><clipPath id="a3b2be29dc"><path d="M 402.800781 140.132812 L 235.238281 394.382812 L -20.261719 225.996094 L 147.300781 -28.253906 Z M 402.800781 140.132812 " clip-rule="nonzero"/></clipPath><clipPath id="10d8068c57"><path d="M 402.800781 140.132812 L 235.238281 394.382812 L -20.261719 225.996094 L 147.300781 -28.253906 Z M 402.800781 140.132812 " clip-rule="nonzero"/></clipPath><clipPath id="ebb1023e72"><path d="M 238 279 L 278 279 L 278 313 L 238 313 Z M 238 279 " clip-rule="nonzero"/></clipPath><clipPath id="bd9d98137b"><path d="M 402.800781 140.132812 L 235.238281 394.382812 L -20.261719 225.996094 L 147.300781 -28.253906 Z M 402.800781 140.132812 " clip-rule="nonzero"/></clipPath><clipPath id="091455359f"><path d="M 402.800781 140.132812 L 235.238281 394.382812 L -20.261719 225.996094 L 147.300781 -28.253906 Z M 402.800781 140.132812 " clip-rule="nonzero"/></clipPath><clipPath id="dfab32c615"><path d="M 250 264 L 300 264 L 300 295 L 250 295 Z M 250 264 " clip-rule="nonzero"/></clipPath><clipPath id="074803d698"><path d="M 402.800781 140.132812 L 235.238281 394.382812 L -20.261719 225.996094 L 147.300781 -28.253906 Z M 402.800781 140.132812 " clip-rule="nonzero"/></clipPath><clipPath id="f37fecfc14"><path d="M 402.800781 140.132812 L 235.238281 394.382812 L -20.261719 225.996094 L 147.300781 -28.253906 Z M 402.800781 140.132812 " clip-rule="nonzero"/></clipPath><clipPath id="f30df46759"><path d="M 142 37 L 146 37 L 146 79 L 142 79 Z M 142 37 " clip-rule="nonzero"/></clipPath><clipPath id="a1cd6b7327"><path d="M 402.800781 140.132812 L 235.238281 394.382812 L -20.261719 225.996094 L 147.300781 -28.253906 Z M 402.800781 140.132812 " clip-rule="nonzero"/></clipPath><clipPath id="8a366c80a4"><path d="M 402.800781 140.132812 L 235.238281 394.382812 L -20.261719 225.996094 L 147.300781 -28.253906 Z M 402.800781 140.132812 " clip-rule="nonzero"/></clipPath><clipPath id="a57cc02960"><path d="M 266 165 L 344 165 L 344 181 L 266 181 Z M 266 165 " clip-rule="nonzero"/></clipPath><clipPath id="1f2f3a0198"><path d="M 402.800781 140.132812 L 235.238281 394.382812 L -20.261719 225.996094 L 147.300781 -28.253906 Z M 402.800781 140.132812 " clip-rule="nonzero"/></clipPath><clipPath id="07a8d20c70"><path d="M 402.800781 140.132812 L 235.238281 394.382812 L -20.261719 225.996094 L 147.300781 -28.253906 Z M 402.800781 140.132812 " clip-rule="nonzero"/></clipPath><clipPath id="fbf9fb8c5c"><path d="M 217 298 L 242 298 L 242 330 L 217 330 Z M 217 298 " clip-rule="nonzero"/></clipPath><clipPath id="411856720f"><path d="M 402.800781 140.132812 L 235.238281 394.382812 L -20.261719 225.996094 L 147.300781 -28.253906 Z M 402.800781 140.132812 " clip-rule="nonzero"/></clipPath><clipPath id="15a3f9fd9c"><path d="M 402.800781 140.132812 L 235.238281 394.382812 L -20.261719 225.996094 L 147.300781 -28.253906 Z M 402.800781 140.132812 " clip-rule="nonzero"/></clipPath><clipPath id="3f49c821c7"><path d="M 258 247 L 319 247 L 319 273 L 258 273 Z M 258 247 " clip-rule="nonzero"/></clipPath><clipPath id="f83bee43f2"><path d="M 402.800781 140.132812 L 235.238281 394.382812 L -20.261719 225.996094 L 147.300781 -28.253906 Z M 402.800781 140.132812 " clip-rule="nonzero"/></clipPath><clipPath id="cdc49efc94"><path d="M 402.800781 140.132812 L 235.238281 394.382812 L -20.261719 225.996094 L 147.300781 -28.253906 Z M 402.800781 140.132812 " clip-rule="nonzero"/></clipPath><clipPath id="1a21793a25"><path d="M 50 121 L 52 121 L 52 123 L 50 123 Z M 50 121 " clip-rule="nonzero"/></clipPath><clipPath id="5155dea8b5"><path d="M 402.800781 140.132812 L 235.238281 394.382812 L -20.261719 225.996094 L 147.300781 -28.253906 Z M 402.800781 140.132812 " clip-rule="nonzero"/></clipPath><clipPath id="d9b2e03837"><path d="M 402.800781 140.132812 L 235.238281 394.382812 L -20.261719 225.996094 L 147.300781 -28.253906 Z M 402.800781 140.132812 " clip-rule="nonzero"/></clipPath><clipPath id="84e137af70"><path d="M 244 272 L 289 272 L 289 305 L 244 305 Z M 244 272 " clip-rule="nonzero"/></clipPath><clipPath id="d7a3774084"><path d="M 402.800781 140.132812 L 235.238281 394.382812 L -20.261719 225.996094 L 147.300781 -28.253906 Z M 402.800781 140.132812 " clip-rule="nonzero"/></clipPath><clipPath id="2b74410d9e"><path d="M 402.800781 140.132812 L 235.238281 394.382812 L -20.261719 225.996094 L 147.300781 -28.253906 Z M 402.800781 140.132812 " clip-rule="nonzero"/></clipPath><clipPath id="f00b637d97"><path d="M 135 323 L 137 323 L 137 328 L 135 328 Z M 135 323 " clip-rule="nonzero"/></clipPath><clipPath id="6abfaabcdf"><path d="M 402.800781 140.132812 L 235.238281 394.382812 L -20.261719 225.996094 L 147.300781 -28.253906 Z M 402.800781 140.132812 " clip-rule="nonzero"/></clipPath><clipPath id="59f4c67e13"><path d="M 402.800781 140.132812 L 235.238281 394.382812 L -20.261719 225.996094 L 147.300781 -28.253906 Z M 402.800781 140.132812 " clip-rule="nonzero"/></clipPath><clipPath id="6748f2e301"><path d="M 145 323 L 147 323 L 147 331 L 145 331 Z M 145 323 " clip-rule="nonzero"/></clipPath><clipPath id="043bca0660"><path d="M 402.800781 140.132812 L 235.238281 394.382812 L -20.261719 225.996094 L 147.300781 -28.253906 Z M 402.800781 140.132812 " clip-rule="nonzero"/></clipPath><clipPath id="7e08303925"><path d="M 402.800781 140.132812 L 235.238281 394.382812 L -20.261719 225.996094 L 147.300781 -28.253906 Z M 402.800781 140.132812 " clip-rule="nonzero"/></clipPath><clipPath id="212c2b00b3"><path d="M 237 69 L 297 69 L 297 122 L 237 122 Z M 237 69 " clip-rule="nonzero"/></clipPath><clipPath id="7c8d44097f"><path d="M 402.800781 140.132812 L 235.238281 394.382812 L -20.261719 225.996094 L 147.300781 -28.253906 Z M 402.800781 140.132812 " clip-rule="nonzero"/></clipPath><clipPath id="b5693413a3"><path d="M 402.800781 140.132812 L 235.238281 394.382812 L -20.261719 225.996094 L 147.300781 -28.253906 Z M 402.800781 140.132812 " clip-rule="nonzero"/></clipPath><clipPath id="c19206dd86"><path d="M 231 59 L 285 59 L 285 114 L 231 114 Z M 231 59 " clip-rule="nonzero"/></clipPath><clipPath id="69e737b1d3"><path d="M 402.800781 140.132812 L 235.238281 394.382812 L -20.261719 225.996094 L 147.300781 -28.253906 Z M 402.800781 140.132812 " clip-rule="nonzero"/></clipPath><clipPath id="7972a53e47"><path d="M 402.800781 140.132812 L 235.238281 394.382812 L -20.261719 225.996094 L 147.300781 -28.253906 Z M 402.800781 140.132812 " clip-rule="nonzero"/></clipPath><clipPath id="57b881cd43"><path d="M 126 321 L 127 321 L 127 324 L 126 324 Z M 126 321 " clip-rule="nonzero"/></clipPath><clipPath id="7675dcb71b"><path d="M 402.800781 140.132812 L 235.238281 394.382812 L -20.261719 225.996094 L 147.300781 -28.253906 Z M 402.800781 140.132812 " clip-rule="nonzero"/></clipPath><clipPath id="8fcc316e78"><path d="M 402.800781 140.132812 L 235.238281 394.382812 L -20.261719 225.996094 L 147.300781 -28.253906 Z M 402.800781 140.132812 " clip-rule="nonzero"/></clipPath><clipPath id="c610c5bd40"><path d="M 208 38 L 245 38 L 245 97 L 208 97 Z M 208 38 " clip-rule="nonzero"/></clipPath><clipPath id="604baa1e02"><path d="M 402.800781 140.132812 L 235.238281 394.382812 L -20.261719 225.996094 L 147.300781 -28.253906 Z M 402.800781 140.132812 " clip-rule="nonzero"/></clipPath><clipPath id="7945a9663f"><path d="M 402.800781 140.132812 L 235.238281 394.382812 L -20.261719 225.996094 L 147.300781 -28.253906 Z M 402.800781 140.132812 " clip-rule="nonzero"/></clipPath><clipPath id="eb2f5f3036"><path d="M 209 304 L 229 304 L 229 334 L 209 334 Z M 209 304 " clip-rule="nonzero"/></clipPath><clipPath id="2b14a0ab02"><path d="M 402.800781 140.132812 L 235.238281 394.382812 L -20.261719 225.996094 L 147.300781 -28.253906 Z M 402.800781 140.132812 " clip-rule="nonzero"/></clipPath><clipPath id="ddbd802f12"><path d="M 402.800781 140.132812 L 235.238281 394.382812 L -20.261719 225.996094 L 147.300781 -28.253906 Z M 402.800781 140.132812 " clip-rule="nonzero"/></clipPath><clipPath id="15bba5c4ef"><path d="M 164 321 L 168 321 L 168 336 L 164 336 Z M 164 321 " clip-rule="nonzero"/></clipPath><clipPath id="1a9b468605"><path d="M 402.800781 140.132812 L 235.238281 394.382812 L -20.261719 225.996094 L 147.300781 -28.253906 Z M 402.800781 140.132812 " clip-rule="nonzero"/></clipPath><clipPath id="37cb9ecc80"><path d="M 402.800781 140.132812 L 235.238281 394.382812 L -20.261719 225.996094 L 147.300781 -28.253906 Z M 402.800781 140.132812 " clip-rule="nonzero"/></clipPath><clipPath id="abd2d82917"><path d="M 183 316 L 192 316 L 192 338 L 183 338 Z M 183 316 " clip-rule="nonzero"/></clipPath><clipPath id="a1c9ec0147"><path d="M 402.800781 140.132812 L 235.238281 394.382812 L -20.261719 225.996094 L 147.300781 -28.253906 Z M 402.800781 140.132812 " clip-rule="nonzero"/></clipPath><clipPath id="8175684332"><path d="M 402.800781 140.132812 L 235.238281 394.382812 L -20.261719 225.996094 L 147.300781 -28.253906 Z M 402.800781 140.132812 " clip-rule="nonzero"/></clipPath><clipPath id="b6f4f2fb31"><path d="M 174 319 L 180 319 L 180 337 L 174 337 Z M 174 319 " clip-rule="nonzero"/></clipPath><clipPath id="8f1e840cad"><path d="M 402.800781 140.132812 L 235.238281 394.382812 L -20.261719 225.996094 L 147.300781 -28.253906 Z M 402.800781 140.132812 " clip-rule="nonzero"/></clipPath><clipPath id="845943412f"><path d="M 402.800781 140.132812 L 235.238281 394.382812 L -20.261719 225.996094 L 147.300781 -28.253906 Z M 402.800781 140.132812 " clip-rule="nonzero"/></clipPath><clipPath id="01a0c18ac2"><path d="M 155 322 L 157 322 L 157 334 L 155 334 Z M 155 322 " clip-rule="nonzero"/></clipPath><clipPath id="0876e5e5bb"><path d="M 402.800781 140.132812 L 235.238281 394.382812 L -20.261719 225.996094 L 147.300781 -28.253906 Z M 402.800781 140.132812 " clip-rule="nonzero"/></clipPath><clipPath id="ba7963960d"><path d="M 402.800781 140.132812 L 235.238281 394.382812 L -20.261719 225.996094 L 147.300781 -28.253906 Z M 402.800781 140.132812 " clip-rule="nonzero"/></clipPath><clipPath id="3719a91a46"><path d="M 216 44 L 260 44 L 260 102 L 216 102 Z M 216 44 " clip-rule="nonzero"/></clipPath><clipPath id="e69dad2eda"><path d="M 402.800781 140.132812 L 235.238281 394.382812 L -20.261719 225.996094 L 147.300781 -28.253906 Z M 402.800781 140.132812 " clip-rule="nonzero"/></clipPath><clipPath id="eb84691370"><path d="M 402.800781 140.132812 L 235.238281 394.382812 L -20.261719 225.996094 L 147.300781 -28.253906 Z M 402.800781 140.132812 " clip-rule="nonzero"/></clipPath><clipPath id="12b7ff694d"><path d="M 223 51 L 273 51 L 273 108 L 223 108 Z M 223 51 " clip-rule="nonzero"/></clipPath><clipPath id="7b30ed55d5"><path d="M 402.800781 140.132812 L 235.238281 394.382812 L -20.261719 225.996094 L 147.300781 -28.253906 Z M 402.800781 140.132812 " clip-rule="nonzero"/></clipPath><clipPath id="89a33599c4"><path d="M 402.800781 140.132812 L 235.238281 394.382812 L -20.261719 225.996094 L 147.300781 -28.253906 Z M 402.800781 140.132812 " clip-rule="nonzero"/></clipPath><clipPath id="da9c20a05c"><rect x="0" width="375" y="0" height="375"/></clipPath><clipPath id="4a47596549"><rect x="0" width="118" y="0" height="234"/></clipPath><clipPath id="7b3bfaebc7"><rect x="0" width="120" y="0" height="234"/></clipPath></defs><g clip-path="url(#cdd6aa47cc)"><g clip-path="url(#fc4e33b040)"><g transform="matrix(1, 0, 0, 1, 43, 43)"><g clip-path="url(#7ecc03332e)"><g clip-path="url(#fc3bd0ad49)"><g clip-path="url(#ca1cee2c90)"><path fill="#ffffff" d="M 0.789062 0.789062 L 288.210938 0.789062 L 288.210938 288.210938 L 0.789062 288.210938 Z M 0.789062 0.789062 " fill-opacity="1" fill-rule="nonzero"/></g></g></g></g></g></g><g clip-path="url(#7536312d89)"><path fill="#02155a" d="M 188.472656 5.285156 C 88.480469 5.285156 7.238281 86.527344 7.238281 186.519531 C 7.238281 286.515625 88.480469 367.757812 188.472656 367.757812 C 288.46875 367.757812 369.710938 286.515625 369.710938 186.519531 C 369.710938 86.527344 288.46875 5.285156 188.472656 5.285156 Z M 188.472656 13.164062 C 284.316406 13.164062 361.832031 90.679688 361.832031 186.519531 C 361.832031 282.363281 284.316406 359.878906 188.472656 359.878906 C 92.632812 359.878906 15.117188 282.363281 15.117188 186.519531 C 15.117188 90.679688 92.632812 13.164062 188.472656 13.164062 Z M 188.472656 13.164062 " fill-opacity="1" fill-rule="nonzero"/></g><g clip-path="url(#4b34158179)"><g clip-path="url(#d0c8a6a94e)"><g transform="matrix(1, 0, 0, 1, 21, 19)"><g clip-path="url(#61596ff4af)"><g clip-path="url(#14dc699073)"><g clip-path="url(#332aa5ed21)"><path fill="#02155a" d="M 0.613281 0.660156 L 334.339844 0.660156 L 334.339844 334.386719 L 0.613281 334.386719 Z M 0.613281 0.660156 " fill-opacity="1" fill-rule="nonzero"/></g></g></g></g></g></g><g mask="url(#be77cc5846)"><g transform="matrix(1, 0, 0, 1, 0, 0)"><g clip-path="url(#da9c20a05c)"><g clip-path="url(#a12326da47)"><g clip-path="url(#97953b1b2f)"><g clip-path="url(#3991f5efaf)"><path fill="#ffffff" d="M 333.390625 135.199219 C 309.242188 144.28125 285.09375 153.359375 260.949219 162.441406 C 286.464844 155.074219 311.984375 147.707031 337.5 140.335938 C 336.910156 138.332031 336.285156 136.339844 335.613281 134.363281 C 334.871094 134.640625 334.132812 134.921875 333.390625 135.199219 Z M 333.390625 135.199219 " fill-opacity="1" fill-rule="nonzero"/></g></g></g><g clip-path="url(#691e2bffb2)"><g clip-path="url(#322b430e26)"><g clip-path="url(#69f7035377)"><path fill="#ffffff" d="M 342.730469 181.101562 C 317.484375 184.246094 292.242188 187.390625 266.996094 190.539062 C 292.453125 189.378906 317.910156 188.214844 343.367188 187.054688 C 343.410156 185.019531 343.421875 183.003906 343.402344 181.015625 C 343.179688 181.042969 342.953125 181.074219 342.730469 181.101562 Z M 342.730469 181.101562 " fill-opacity="1" fill-rule="nonzero"/></g></g></g><g clip-path="url(#e7a45fbab7)"><g clip-path="url(#84e86fe662)"><g clip-path="url(#170f324cff)"><path fill="#ffffff" d="M 257.957031 153.328125 C 282.710938 144.019531 307.464844 134.707031 332.222656 125.398438 C 331.425781 123.480469 330.601562 121.582031 329.730469 119.703125 C 329.011719 120.039062 328.292969 120.375 327.574219 120.710938 C 304.367188 131.582031 281.164062 142.457031 257.957031 153.328125 Z M 257.957031 153.328125 " fill-opacity="1" fill-rule="nonzero"/></g></g></g><g clip-path="url(#153f0c7e68)"><g clip-path="url(#23d7c47685)"><g clip-path="url(#3be2fb83e4)"><path fill="#ffffff" d="M 337.410156 150.355469 C 312.816406 157.457031 288.222656 164.558594 263.628906 171.660156 C 289.46875 166.355469 315.308594 161.054688 341.148438 155.753906 C 340.78125 153.703125 340.382812 151.660156 339.925781 149.628906 C 339.089844 149.871094 338.253906 150.113281 337.410156 150.355469 Z M 337.410156 150.355469 " fill-opacity="1" fill-rule="nonzero"/></g></g></g><g clip-path="url(#fb19ae566c)"><g clip-path="url(#ef200e3ddc)"><g clip-path="url(#5c0a1a35e0)"><path fill="#ffffff" d="M 201.320312 31.292969 C 199.796875 31.1875 198.273438 31.105469 196.75 31.039062 C 191.839844 48.90625 186.925781 66.773438 182.015625 84.636719 C 188.449219 66.855469 194.886719 49.074219 201.320312 31.292969 Z M 201.320312 31.292969 " fill-opacity="1" fill-rule="nonzero"/></g></g></g><g clip-path="url(#f309f24d95)"><g clip-path="url(#6cb9f44c74)"><g clip-path="url(#52ed799958)"><path fill="#ffffff" d="M 215.933594 32.992188 C 214.351562 32.734375 212.773438 32.503906 211.195312 32.292969 C 204.53125 50.707031 197.867188 69.121094 191.203125 87.535156 C 199.445312 69.351562 207.691406 51.171875 215.933594 32.992188 Z M 215.933594 32.992188 " fill-opacity="1" fill-rule="nonzero"/></g></g></g><g clip-path="url(#9e530055a3)"><g clip-path="url(#af4f4c7727)"><g clip-path="url(#90e4e93ee0)"><path fill="#ffffff" d="M 254.140625 144.480469 C 277.894531 133.351562 301.648438 122.226562 325.402344 111.097656 C 324.421875 109.289062 323.40625 107.5 322.355469 105.742188 C 321.546875 106.199219 320.738281 106.660156 319.925781 107.121094 C 298 119.574219 276.070312 132.027344 254.140625 144.480469 Z M 254.140625 144.480469 " fill-opacity="1" fill-rule="nonzero"/></g></g></g><g clip-path="url(#f7e257d149)"><g clip-path="url(#b8c329a069)"><g clip-path="url(#9056887bbf)"><path fill="#ffffff" d="M 263.925781 228.644531 C 286 234.722656 308.070312 240.800781 330.144531 246.878906 C 330.839844 245.292969 331.550781 243.589844 332.253906 241.792969 C 309.480469 237.410156 286.703125 233.027344 263.925781 228.644531 Z M 263.925781 228.644531 " fill-opacity="1" fill-rule="nonzero"/></g></g></g><g clip-path="url(#572f2279d7)"><g clip-path="url(#fb4fbe733e)"><g clip-path="url(#c872423101)"><path fill="#ffffff" d="M 261.75 238.023438 C 282.257812 245.449219 302.765625 252.871094 323.273438 260.296875 C 324.144531 258.769531 324.992188 257.222656 325.8125 255.667969 C 304.457031 249.785156 283.105469 243.90625 261.75 238.023438 Z M 261.75 238.023438 " fill-opacity="1" fill-rule="nonzero"/></g></g></g><g clip-path="url(#85fbee3906)"><g clip-path="url(#b23b3e2b68)"><g clip-path="url(#0850938c92)"><path fill="#ffffff" d="M 342.449219 196.691406 C 317.265625 197.839844 292.085938 198.988281 266.902344 200.136719 C 292.0625 200.972656 317.222656 201.8125 342.382812 202.648438 C 342.59375 200.664062 342.769531 198.667969 342.914062 196.667969 C 342.757812 196.675781 342.601562 196.683594 342.449219 196.691406 Z M 342.449219 196.691406 " fill-opacity="1" fill-rule="nonzero"/></g></g></g><g clip-path="url(#b581c7ef04)"><g clip-path="url(#a4aca128fa)"><g clip-path="url(#abb5657a51)"><path fill="#ffffff" d="M 186.796875 30.949219 C 185.382812 30.980469 183.972656 31.019531 182.558594 31.085938 C 179.308594 48 176.058594 64.914062 172.808594 81.828125 C 177.472656 64.871094 182.132812 47.910156 186.796875 30.949219 Z M 186.796875 30.949219 " fill-opacity="1" fill-rule="nonzero"/></g></g></g><g clip-path="url(#e2c168317c)"><g clip-path="url(#549c247818)"><g clip-path="url(#0eafb99896)"><path fill="#ffffff" d="M 262.496094 319.273438 C 263.558594 318.691406 264.621094 318.097656 265.671875 317.484375 C 254.535156 307.320312 243.398438 297.152344 232.261719 286.988281 C 242.339844 297.746094 252.421875 308.511719 262.496094 319.273438 Z M 262.496094 319.273438 " fill-opacity="1" fill-rule="nonzero"/></g></g></g><g clip-path="url(#4a7cebf464)"><g clip-path="url(#a5c12699ae)"><g clip-path="url(#47b6222221)"><path fill="#ffffff" d="M 265.84375 219.28125 C 289.078125 223.753906 312.3125 228.222656 335.546875 232.695312 C 336.152344 230.898438 336.730469 229.089844 337.277344 227.289062 C 313.46875 224.617188 289.652344 221.949219 265.84375 219.28125 Z M 265.84375 219.28125 " fill-opacity="1" fill-rule="nonzero"/></g></g></g><g clip-path="url(#5e018706f2)"><g clip-path="url(#518c0a23e2)"><g clip-path="url(#24135a5948)"><path fill="#ffffff" d="M 267.523438 209.792969 C 291.636719 212.496094 315.75 215.199219 339.863281 217.902344 C 340.347656 215.894531 340.753906 213.996094 341.070312 212.238281 C 316.554688 211.421875 292.039062 210.609375 267.523438 209.792969 Z M 267.523438 209.792969 " fill-opacity="1" fill-rule="nonzero"/></g></g></g><g clip-path="url(#8f72e2aa91)"><g clip-path="url(#08f359b670)"><g clip-path="url(#a633b63ad9)"><path fill="#ffffff" d="M 172.667969 31.902344 C 171.367188 32.046875 170.058594 32.21875 168.753906 32.398438 C 166.976562 48.265625 165.203125 64.132812 163.425781 80 C 166.507812 63.96875 169.589844 47.933594 172.667969 31.902344 Z M 172.667969 31.902344 " fill-opacity="1" fill-rule="nonzero"/></g></g></g><g clip-path="url(#769b8fb62b)"><g clip-path="url(#708c2fbc21)"><g clip-path="url(#c0c700e27e)"><path fill="#ffffff" d="M 66.699219 93.75 C 66.53125 93.980469 66.355469 94.207031 66.191406 94.441406 C 68.339844 97.128906 70.488281 99.824219 72.640625 102.515625 C 70.660156 99.59375 68.679688 96.671875 66.699219 93.75 Z M 66.699219 93.75 " fill-opacity="1" fill-rule="nonzero"/></g></g></g><g clip-path="url(#e84cdf0189)"><g clip-path="url(#750c9596db)"><g clip-path="url(#c4c698faf7)"><path fill="#ffffff" d="M 73.5625 84.964844 C 73.328125 85.242188 73.089844 85.515625 72.855469 85.792969 C 75.3125 89.417969 77.765625 93.042969 80.222656 96.664062 C 78.003906 92.765625 75.785156 88.867188 73.5625 84.964844 Z M 73.5625 84.964844 " fill-opacity="1" fill-rule="nonzero"/></g></g></g><g clip-path="url(#71e4fd8c14)"><g clip-path="url(#84f5f096de)"><g clip-path="url(#0c3fd85916)"><path fill="#ffffff" d="M 250.484375 325.132812 C 251.503906 324.699219 252.519531 324.246094 253.535156 323.785156 C 244.152344 313.769531 234.773438 303.75 225.390625 293.730469 C 233.753906 304.199219 242.121094 314.667969 250.484375 325.132812 Z M 250.484375 325.132812 " fill-opacity="1" fill-rule="nonzero"/></g></g></g><g clip-path="url(#3d597443f1)"><g clip-path="url(#ec5b52f42a)"><g clip-path="url(#3b45615a8a)"><path fill="#ffffff" d="M 55.21875 112.019531 C 55.167969 112.113281 55.117188 112.203125 55.066406 112.296875 C 56.011719 113.15625 56.957031 114.015625 57.898438 114.878906 C 57.007812 113.925781 56.113281 112.972656 55.21875 112.019531 Z M 55.21875 112.019531 " fill-opacity="1" fill-rule="nonzero"/></g></g></g><g clip-path="url(#9301f59d8b)"><g clip-path="url(#080658a95b)"><g clip-path="url(#ba8fcc2961)"><path fill="#ffffff" d="M 81.34375 76.347656 C 81.003906 76.699219 80.65625 77.039062 80.320312 77.394531 C 83.191406 82.4375 86.0625 87.480469 88.929688 92.523438 C 86.398438 87.132812 83.871094 81.738281 81.34375 76.347656 Z M 81.34375 76.347656 " fill-opacity="1" fill-rule="nonzero"/></g></g></g><g clip-path="url(#3f424e7e36)"><g clip-path="url(#94e9dbf1e4)"><g clip-path="url(#7f8daccb91)"><path fill="#ffffff" d="M 60.566406 102.820312 C 60.464844 102.984375 60.355469 103.144531 60.253906 103.3125 C 61.855469 105.019531 63.453125 106.726562 65.054688 108.433594 C 63.558594 106.566406 62.0625 104.691406 60.566406 102.820312 Z M 60.566406 102.820312 " fill-opacity="1" fill-rule="nonzero"/></g></g></g><g clip-path="url(#6f9daaff71)"><g clip-path="url(#82cc4ef9be)"><g clip-path="url(#042bbf7778)"><path fill="#ffffff" d="M 132.933594 41.449219 C 131.976562 41.828125 131.027344 42.222656 130.078125 42.625 C 131.609375 54.871094 133.144531 67.117188 134.675781 79.363281 C 134.097656 66.726562 133.515625 54.089844 132.933594 41.449219 Z M 132.933594 41.449219 " fill-opacity="1" fill-rule="nonzero"/></g></g></g><g clip-path="url(#5738e0c024)"><g clip-path="url(#749e86693f)"><g clip-path="url(#8d6422323a)"><path fill="#ffffff" d="M 120.9375 46.890625 C 120.136719 47.296875 119.332031 47.699219 118.539062 48.121094 C 120.714844 58.683594 122.886719 69.242188 125.058594 79.804688 C 123.683594 68.832031 122.3125 57.859375 120.9375 46.890625 Z M 120.9375 46.890625 " fill-opacity="1" fill-rule="nonzero"/></g></g></g><g clip-path="url(#b68f076099)"><g clip-path="url(#1598cc45eb)"><g clip-path="url(#8ad82b0556)"><path fill="#ffffff" d="M 158.894531 34.027344 C 157.703125 34.261719 156.507812 34.488281 155.3125 34.75 C 154.832031 49.484375 154.347656 64.214844 153.867188 78.949219 C 155.542969 63.976562 157.21875 49.003906 158.894531 34.027344 Z M 158.894531 34.027344 " fill-opacity="1" fill-rule="nonzero"/></g></g></g><g clip-path="url(#4470ad1661)"><g clip-path="url(#5a43be3f30)"><g clip-path="url(#bb0a57c304)"><path fill="#ffffff" d="M 109.761719 53.222656 C 109.082031 53.648438 108.417969 54.09375 107.746094 54.53125 C 110.386719 63.664062 113.027344 72.800781 115.667969 81.933594 C 113.699219 72.359375 111.726562 62.792969 109.761719 53.222656 Z M 109.761719 53.222656 " fill-opacity="1" fill-rule="nonzero"/></g></g></g><g clip-path="url(#0ceaeb6b2c)"><g clip-path="url(#ff2b10482d)"><g clip-path="url(#fb99812d19)"><path fill="#ffffff" d="M 99.4375 60.351562 C 98.875 60.777344 98.320312 61.210938 97.761719 61.640625 C 100.703125 69.457031 103.644531 77.269531 106.585938 85.085938 C 104.203125 76.839844 101.820312 68.597656 99.4375 60.351562 Z M 99.4375 60.351562 " fill-opacity="1" fill-rule="nonzero"/></g></g></g><g clip-path="url(#457b9398ac)"><g clip-path="url(#ac08f1685e)"><g clip-path="url(#7913fba423)"><path fill="#ffffff" d="M 89.957031 68.113281 C 89.523438 68.496094 89.085938 68.878906 88.660156 69.265625 C 91.585938 75.511719 94.515625 81.757812 97.445312 88.003906 C 94.949219 81.375 92.453125 74.742188 89.957031 68.113281 Z M 89.957031 68.113281 " fill-opacity="1" fill-rule="nonzero"/></g></g></g><g clip-path="url(#bd5ebcfad1)"><g clip-path="url(#3c01656d9d)"><g clip-path="url(#7ca0ae5c34)"><path fill="#ffffff" d="M 312.359375 93.386719 C 291.078125 107.796875 269.800781 122.207031 248.519531 136.617188 C 271.402344 123.621094 294.277344 110.628906 317.15625 97.636719 C 315.980469 95.925781 314.773438 94.246094 313.53125 92.59375 C 313.140625 92.859375 312.75 93.125 312.359375 93.386719 Z M 312.359375 93.386719 " fill-opacity="1" fill-rule="nonzero"/></g></g></g><g clip-path="url(#fbf5f19020)"><g clip-path="url(#6baa4b13a1)"><g clip-path="url(#afeebb0fc4)"><path fill="#ffffff" d="M 253.960938 255.519531 C 271.351562 265.117188 288.746094 274.71875 306.136719 284.316406 C 307.144531 283.128906 308.179688 281.871094 309.226562 280.570312 C 290.804688 272.21875 272.382812 263.871094 253.960938 255.519531 Z M 253.960938 255.519531 " fill-opacity="1" fill-rule="nonzero"/></g></g></g><g clip-path="url(#d5597e1a1e)"><g clip-path="url(#3bca1ba7c3)"><g clip-path="url(#0ef533a03c)"><path fill="#ffffff" d="M 302.84375 81.101562 C 283.074219 96.886719 263.304688 112.667969 243.53125 128.449219 C 264.863281 114.007812 286.191406 99.566406 307.519531 85.121094 C 306.203125 83.585938 304.855469 82.078125 303.488281 80.589844 C 303.273438 80.761719 303.058594 80.929688 302.84375 81.101562 Z M 302.84375 81.101562 " fill-opacity="1" fill-rule="nonzero"/></g></g></g><g clip-path="url(#3a3f9c90f8)"><g clip-path="url(#74e7b53d80)"><g clip-path="url(#ae8484ed80)"><path fill="#ffffff" d="M 230.496094 36.078125 C 228.859375 35.65625 227.21875 35.253906 225.585938 34.886719 C 217.011719 53.789062 208.441406 72.691406 199.871094 91.597656 C 210.082031 73.089844 220.289062 54.582031 230.496094 36.078125 Z M 230.496094 36.078125 " fill-opacity="1" fill-rule="nonzero"/></g></g></g><g clip-path="url(#1c1400dfde)"><g clip-path="url(#cdf0629d9f)"><g clip-path="url(#f873d59fbc)"><path fill="#ffffff" d="M 213.460938 335.398438 C 214.242188 335.285156 215.019531 335.164062 215.792969 335.042969 C 211.035156 326.667969 206.273438 318.296875 201.511719 309.921875 C 205.496094 318.414062 209.476562 326.90625 213.460938 335.398438 Z M 213.460938 335.398438 " fill-opacity="1" fill-rule="nonzero"/></g></g></g><g clip-path="url(#ed3d542cdf)"><g clip-path="url(#a3b2be29dc)"><g clip-path="url(#10d8068c57)"><path fill="#ffffff" d="M 201.296875 336.691406 C 201.984375 336.644531 202.664062 336.574219 203.351562 336.519531 C 199.773438 328.890625 196.195312 321.261719 192.617188 313.632812 C 195.511719 321.316406 198.402344 329.003906 201.296875 336.691406 Z M 201.296875 336.691406 " fill-opacity="1" fill-rule="nonzero"/></g></g></g><g clip-path="url(#ebb1023e72)"><g clip-path="url(#bd9d98137b)"><g clip-path="url(#091455359f)"><path fill="#ffffff" d="M 238.164062 279.410156 C 250.15625 290.363281 262.152344 301.308594 274.148438 312.261719 C 275.28125 311.535156 276.40625 310.796875 277.535156 310.039062 C 264.410156 299.828125 251.285156 289.621094 238.164062 279.410156 Z M 238.164062 279.410156 " fill-opacity="1" fill-rule="nonzero"/></g></g></g><g clip-path="url(#dfab32c615)"><g clip-path="url(#074803d698)"><g clip-path="url(#f37fecfc14)"><path fill="#ffffff" d="M 250.046875 264.324219 C 265.445312 274.472656 280.839844 284.617188 296.234375 294.765625 C 297.335938 293.730469 298.421875 292.679688 299.484375 291.609375 C 283.007812 282.515625 266.527344 273.421875 250.046875 264.324219 Z M 250.046875 264.324219 " fill-opacity="1" fill-rule="nonzero"/></g></g></g><g clip-path="url(#f30df46759)"><g clip-path="url(#a1cd6b7327)"><g clip-path="url(#8a366c80a4)"><path fill="#ffffff" d="M 145.601562 37.167969 C 144.519531 37.472656 143.445312 37.792969 142.375 38.128906 C 142.996094 51.652344 143.621094 65.175781 144.242188 78.699219 C 144.691406 64.855469 145.148438 51.011719 145.601562 37.167969 Z M 145.601562 37.167969 " fill-opacity="1" fill-rule="nonzero"/></g></g></g><g clip-path="url(#a57cc02960)"><g clip-path="url(#1f2f3a0198)"><g clip-path="url(#07a8d20c70)"><path fill="#ffffff" d="M 340.65625 165.6875 C 315.820312 170.78125 290.988281 175.875 266.152344 180.972656 C 291.785156 177.777344 317.417969 174.582031 343.050781 171.386719 C 342.921875 169.457031 342.769531 167.574219 342.578125 165.761719 C 342.5625 165.609375 342.539062 165.457031 342.523438 165.300781 C 341.902344 165.429688 341.277344 165.558594 340.65625 165.6875 Z M 340.65625 165.6875 " fill-opacity="1" fill-rule="nonzero"/></g></g></g><g clip-path="url(#fbf9fb8c5c)"><g clip-path="url(#411856720f)"><g clip-path="url(#15a3f9fd9c)"><path fill="#ffffff" d="M 238.09375 329.765625 C 239.085938 329.445312 240.078125 329.105469 241.066406 328.765625 C 233.082031 318.773438 225.101562 308.785156 217.121094 298.792969 C 224.109375 309.117188 231.101562 319.441406 238.09375 329.765625 Z M 238.09375 329.765625 " fill-opacity="1" fill-rule="nonzero"/></g></g></g><g clip-path="url(#3f49c821c7)"><g clip-path="url(#f83bee43f2)"><g clip-path="url(#cdc49efc94)"><path fill="#ffffff" d="M 258.707031 247.160156 C 277.539062 255.695312 296.367188 264.234375 315.203125 272.769531 C 315.847656 271.886719 316.488281 270.992188 317.121094 270.09375 C 317.453125 269.621094 317.773438 269.140625 318.097656 268.664062 C 298.300781 261.496094 278.503906 254.328125 258.707031 247.160156 Z M 258.707031 247.160156 " fill-opacity="1" fill-rule="nonzero"/></g></g></g><g clip-path="url(#1a21793a25)"><g clip-path="url(#5155dea8b5)"><g clip-path="url(#d9b2e03837)"><path fill="#ffffff" d="M 51.554688 122.046875 C 51.253906 121.773438 50.953125 121.5 50.652344 121.222656 C 50.636719 121.253906 50.625 121.28125 50.609375 121.3125 C 50.925781 121.558594 51.242188 121.804688 51.554688 122.046875 Z M 51.554688 122.046875 " fill-opacity="1" fill-rule="nonzero"/></g></g></g><g clip-path="url(#84e137af70)"><g clip-path="url(#d7a3774084)"><g clip-path="url(#2b74410d9e)"><path fill="#ffffff" d="M 244.691406 272.328125 C 258.308594 282.917969 271.921875 293.511719 285.539062 304.105469 C 285.941406 303.773438 286.339844 303.460938 286.753906 303.109375 C 287.433594 302.539062 288.113281 301.96875 288.789062 301.390625 C 274.09375 291.703125 259.390625 282.015625 244.691406 272.328125 Z M 244.691406 272.328125 " fill-opacity="1" fill-rule="nonzero"/></g></g></g><g clip-path="url(#f00b637d97)"><g clip-path="url(#6abfaabcdf)"><g clip-path="url(#59f4c67e13)"><path fill="#ffffff" d="M 135.828125 326.96875 C 135.921875 327.003906 136.015625 327.042969 136.109375 327.078125 C 136.148438 325.832031 136.191406 324.585938 136.230469 323.34375 C 136.097656 324.550781 135.960938 325.761719 135.828125 326.96875 Z M 135.828125 326.96875 " fill-opacity="1" fill-rule="nonzero"/></g></g></g><g clip-path="url(#6748f2e301)"><g clip-path="url(#043bca0660)"><g clip-path="url(#7e08303925)"><path fill="#ffffff" d="M 145.867188 323.289062 C 145.789062 325.664062 145.710938 328.039062 145.632812 330.414062 C 145.824219 330.472656 146.011719 330.53125 146.199219 330.589844 C 146.089844 328.15625 145.980469 325.722656 145.867188 323.289062 Z M 145.867188 323.289062 " fill-opacity="1" fill-rule="nonzero"/></g></g></g><g clip-path="url(#212c2b00b3)"><g clip-path="url(#7c8d44097f)"><g clip-path="url(#b5693413a3)"><path fill="#ffffff" d="M 237.425781 121.011719 C 257.199219 105.230469 276.972656 89.445312 296.746094 73.660156 C 295.308594 72.269531 293.847656 70.90625 292.367188 69.570312 C 292.257812 69.671875 292.152344 69.773438 292.042969 69.875 C 273.835938 86.921875 255.632812 103.964844 237.425781 121.011719 Z M 237.425781 121.011719 " fill-opacity="1" fill-rule="nonzero"/></g></g></g><g clip-path="url(#c19206dd86)"><g clip-path="url(#69e737b1d3)"><g clip-path="url(#7972a53e47)"><path fill="#ffffff" d="M 280.230469 59.917969 C 263.839844 77.875 247.449219 95.832031 231.058594 113.789062 C 249.03125 96.957031 267.007812 80.125 284.984375 63.296875 C 283.46875 62.089844 281.929688 60.910156 280.371094 59.761719 C 280.324219 59.816406 280.277344 59.867188 280.230469 59.917969 Z M 280.230469 59.917969 " fill-opacity="1" fill-rule="nonzero"/></g></g></g><g clip-path="url(#57b881cd43)"><g clip-path="url(#7675dcb71b)"><g clip-path="url(#8fcc316e78)"><path fill="#ffffff" d="M 126.492188 323 C 126.523438 323.015625 126.558594 323.03125 126.589844 323.046875 C 126.640625 322.597656 126.691406 322.144531 126.742188 321.695312 C 126.65625 322.128906 126.574219 322.5625 126.492188 323 Z M 126.492188 323 " fill-opacity="1" fill-rule="nonzero"/></g></g></g><g clip-path="url(#c610c5bd40)"><g clip-path="url(#604baa1e02)"><g clip-path="url(#7945a9663f)"><path fill="#ffffff" d="M 244.972656 40.550781 C 243.3125 39.941406 241.636719 39.359375 239.949219 38.816406 C 229.398438 57.945312 218.84375 77.078125 208.289062 96.210938 C 220.515625 77.65625 232.746094 59.105469 244.972656 40.550781 Z M 244.972656 40.550781 " fill-opacity="1" fill-rule="nonzero"/></g></g></g><g clip-path="url(#eb2f5f3036)"><g clip-path="url(#2b14a0ab02)"><g clip-path="url(#ddbd802f12)"><path fill="#ffffff" d="M 225.765625 333.121094 C 226.648438 332.921875 227.53125 332.738281 228.414062 332.519531 C 222.195312 323.335938 215.976562 314.152344 209.757812 304.964844 C 215.09375 314.351562 220.429688 323.738281 225.765625 333.121094 Z M 225.765625 333.121094 " fill-opacity="1" fill-rule="nonzero"/></g></g></g><g clip-path="url(#15bba5c4ef)"><g clip-path="url(#1a9b468605)"><g clip-path="url(#37cb9ecc80)"><path fill="#ffffff" d="M 166.675781 335.359375 C 167.070312 335.421875 167.464844 335.492188 167.859375 335.550781 C 166.878906 330.789062 165.898438 326.027344 164.917969 321.261719 C 165.503906 325.960938 166.09375 330.660156 166.675781 335.359375 Z M 166.675781 335.359375 " fill-opacity="1" fill-rule="nonzero"/></g></g></g><g clip-path="url(#abd2d82917)"><g clip-path="url(#a1c9ec0147)"><g clip-path="url(#8175684332)"><path fill="#ffffff" d="M 189.425781 337.078125 C 190.015625 337.078125 190.605469 337.074219 191.195312 337.066406 C 188.644531 330.289062 186.09375 323.511719 183.542969 316.734375 C 185.503906 323.515625 187.464844 330.296875 189.425781 337.078125 Z M 189.425781 337.078125 " fill-opacity="1" fill-rule="nonzero"/></g></g></g><g clip-path="url(#b6f4f2fb31)"><g clip-path="url(#8f1e840cad)"><g clip-path="url(#845943412f)"><path fill="#ffffff" d="M 177.921875 336.667969 C 178.398438 336.703125 178.871094 336.753906 179.347656 336.785156 C 177.726562 331.171875 176.101562 325.554688 174.476562 319.9375 C 175.625 325.515625 176.773438 331.089844 177.921875 336.667969 Z M 177.921875 336.667969 " fill-opacity="1" fill-rule="nonzero"/></g></g></g><g clip-path="url(#01a0c18ac2)"><g clip-path="url(#0876e5e5bb)"><g clip-path="url(#ba7963960d)"><path fill="#ffffff" d="M 155.917969 333.242188 C 156.199219 333.308594 156.480469 333.375 156.765625 333.441406 C 156.324219 329.902344 155.882812 326.363281 155.441406 322.820312 C 155.597656 326.296875 155.757812 329.769531 155.917969 333.242188 Z M 155.917969 333.242188 " fill-opacity="1" fill-rule="nonzero"/></g></g></g><g clip-path="url(#3719a91a46)"><g clip-path="url(#e69dad2eda)"><g clip-path="url(#eb84691370)"><path fill="#ffffff" d="M 216.410156 101.390625 C 230.609375 83.136719 244.8125 64.886719 259.015625 46.632812 C 257.378906 45.8125 255.726562 45.023438 254.054688 44.269531 C 241.507812 63.308594 228.957031 82.351562 216.410156 101.390625 Z M 216.410156 101.390625 " fill-opacity="1" fill-rule="nonzero"/></g></g></g><g clip-path="url(#12b7ff694d)"><g clip-path="url(#7b30ed55d5)"><g clip-path="url(#89a33599c4)"><path fill="#ffffff" d="M 267.566406 51.277344 C 252.945312 70.066406 238.328125 88.855469 223.707031 107.644531 C 239.945312 89.855469 256.183594 72.066406 272.421875 54.277344 C 270.820312 53.246094 269.203125 52.242188 267.566406 51.277344 Z M 267.566406 51.277344 " fill-opacity="1" fill-rule="nonzero"/></g></g></g></g></g></g><g transform="matrix(1, 0, 0, 1, 91, 31)"><g clip-path="url(#4a47596549)"><g fill="#000000" fill-opacity="0.4"><g transform="translate(4.695625, 171.219025)"><g><path d="M 62.265625 0 L 7.3125 0 L 7.3125 -1.734375 L 9.5625 -1.734375 C 13.738281 -1.734375 16.929688 -3.53125 19.140625 -7.125 C 20.066406 -8.75 20.585938 -10.550781 20.703125 -12.53125 L 20.703125 -109.234375 C 20.585938 -112.242188 19.457031 -114.789062 17.3125 -116.875 C 15.164062 -118.96875 12.582031 -120.015625 9.5625 -120.015625 L 7.3125 -120.015625 L 7.3125 -121.75 L 57.75 -121.75 C 71.195312 -121.75 81.890625 -119.3125 89.828125 -114.4375 C 97.773438 -109.570312 101.804688 -102.097656 101.921875 -92.015625 C 101.804688 -86.910156 100.707031 -82.445312 98.625 -78.625 C 94.789062 -71.425781 88.757812 -67.304688 80.53125 -66.265625 C 89.457031 -65.453125 96.816406 -62.117188 102.609375 -56.265625 C 108.410156 -50.410156 111.3125 -42.960938 111.3125 -33.921875 C 111.3125 -23.015625 106.9375 -14.632812 98.1875 -8.78125 C 89.4375 -2.925781 77.460938 0 62.265625 0 Z M 74.09375 -89.75 C 73.976562 -106.101562 66.554688 -114.28125 51.828125 -114.28125 L 46.796875 -114.28125 L 46.796875 -8 L 54.796875 -8 C 54.910156 -8 55.023438 -8 55.140625 -8 C 63.140625 -8 69.515625 -10.316406 74.265625 -14.953125 C 79.023438 -19.597656 81.40625 -26.671875 81.40625 -36.171875 C 81.40625 -45.679688 78.738281 -52.753906 73.40625 -57.390625 C 68.070312 -62.035156 61.171875 -64.359375 52.703125 -64.359375 L 52.703125 -65.921875 C 58.734375 -65.921875 63.773438 -67.863281 67.828125 -71.75 C 71.890625 -75.632812 73.976562 -81.632812 74.09375 -89.75 Z M 74.09375 -89.75 "/></g></g></g><g fill="#ffffff" fill-opacity="1"><g transform="translate(1.467013, 167.99041)"><g><path d="M 62.265625 0 L 7.3125 0 L 7.3125 -1.734375 L 9.5625 -1.734375 C 13.738281 -1.734375 16.929688 -3.53125 19.140625 -7.125 C 20.066406 -8.75 20.585938 -10.550781 20.703125 -12.53125 L 20.703125 -109.234375 C 20.585938 -112.242188 19.457031 -114.789062 17.3125 -116.875 C 15.164062 -118.96875 12.582031 -120.015625 9.5625 -120.015625 L 7.3125 -120.015625 L 7.3125 -121.75 L 57.75 -121.75 C 71.195312 -121.75 81.890625 -119.3125 89.828125 -114.4375 C 97.773438 -109.570312 101.804688 -102.097656 101.921875 -92.015625 C 101.804688 -86.910156 100.707031 -82.445312 98.625 -78.625 C 94.789062 -71.425781 88.757812 -67.304688 80.53125 -66.265625 C 89.457031 -65.453125 96.816406 -62.117188 102.609375 -56.265625 C 108.410156 -50.410156 111.3125 -42.960938 111.3125 -33.921875 C 111.3125 -23.015625 106.9375 -14.632812 98.1875 -8.78125 C 89.4375 -2.925781 77.460938 0 62.265625 0 Z M 74.09375 -89.75 C 73.976562 -106.101562 66.554688 -114.28125 51.828125 -114.28125 L 46.796875 -114.28125 L 46.796875 -8 L 54.796875 -8 C 54.910156 -8 55.023438 -8 55.140625 -8 C 63.140625 -8 69.515625 -10.316406 74.265625 -14.953125 C 79.023438 -19.597656 81.40625 -26.671875 81.40625 -36.171875 C 81.40625 -45.679688 78.738281 -52.753906 73.40625 -57.390625 C 68.070312 -62.035156 61.171875 -64.359375 52.703125 -64.359375 L 52.703125 -65.921875 C 58.734375 -65.921875 63.773438 -67.863281 67.828125 -71.75 C 71.890625 -75.632812 73.976562 -81.632812 74.09375 -89.75 Z M 74.09375 -89.75 "/></g></g></g></g></g><g transform="matrix(1, 0, 0, 1, 175, 94)"><g clip-path="url(#7b3bfaebc7)"><g fill="#000000" fill-opacity="0.4"><g transform="translate(4.432094, 171.262475)"><g><path d="M 71.140625 -114.625 L 71.140625 -12.53125 C 71.253906 -9.507812 72.382812 -6.953125 74.53125 -4.859375 C 76.675781 -2.773438 79.253906 -1.734375 82.265625 -1.734375 L 84.359375 -1.734375 L 84.53125 0 L 31.65625 0 L 31.65625 -1.734375 L 33.921875 -1.734375 C 36.816406 -1.734375 39.335938 -2.773438 41.484375 -4.859375 C 43.628906 -6.953125 44.816406 -9.445312 45.046875 -12.34375 L 45.046875 -114.625 L 21.5625 -114.625 C 16.226562 -114.507812 11.992188 -112.828125 8.859375 -109.578125 C 5.734375 -106.328125 4.171875 -102.097656 4.171875 -96.890625 L 4.171875 -94.796875 L 2.4375 -94.796875 L 2.4375 -125.0625 C 7.1875 -123.09375 14.023438 -122.050781 22.953125 -121.9375 L 93.0625 -121.9375 C 96.65625 -121.9375 100.566406 -122.28125 104.796875 -122.96875 C 109.023438 -123.664062 111.953125 -124.363281 113.578125 -125.0625 L 113.578125 -94.796875 L 111.84375 -94.796875 L 111.84375 -96.890625 C 111.84375 -104.078125 109.117188 -109.175781 103.671875 -112.1875 C 101.117188 -113.695312 98.046875 -114.507812 94.453125 -114.625 Z M 71.140625 -114.625 "/></g></g></g><g fill="#bedef1" fill-opacity="1"><g transform="translate(1.203475, 168.033864)"><g><path d="M 71.140625 -114.625 L 71.140625 -12.53125 C 71.253906 -9.507812 72.382812 -6.953125 74.53125 -4.859375 C 76.675781 -2.773438 79.253906 -1.734375 82.265625 -1.734375 L 84.359375 -1.734375 L 84.53125 0 L 31.65625 0 L 31.65625 -1.734375 L 33.921875 -1.734375 C 36.816406 -1.734375 39.335938 -2.773438 41.484375 -4.859375 C 43.628906 -6.953125 44.816406 -9.445312 45.046875 -12.34375 L 45.046875 -114.625 L 21.5625 -114.625 C 16.226562 -114.507812 11.992188 -112.828125 8.859375 -109.578125 C 5.734375 -106.328125 4.171875 -102.097656 4.171875 -96.890625 L 4.171875 -94.796875 L 2.4375 -94.796875 L 2.4375 -125.0625 C 7.1875 -123.09375 14.023438 -122.050781 22.953125 -121.9375 L 93.0625 -121.9375 C 96.65625 -121.9375 100.566406 -122.28125 104.796875 -122.96875 C 109.023438 -123.664062 111.953125 -124.363281 113.578125 -125.0625 L 113.578125 -94.796875 L 111.84375 -94.796875 L 111.84375 -96.890625 C 111.84375 -104.078125 109.117188 -109.175781 103.671875 -112.1875 C 101.117188 -113.695312 98.046875 -114.507812 94.453125 -114.625 Z M 71.140625 -114.625 "/></g></g></g></g></g><g fill="#ffffff" fill-opacity="1"><g transform="translate(91.122368, 252.217951)"><g><path d="M 7.421875 0.421875 C 5.765625 0.421875 4.238281 0.113281 2.84375 -0.5 C 1.457031 -1.125 0.320312 -2.007812 -0.5625 -3.15625 L 2.59375 -6.9375 C 3.914062 -5.132812 5.429688 -4.234375 7.140625 -4.234375 C 9.453125 -4.234375 10.609375 -5.585938 10.609375 -8.296875 L 10.609375 -19.953125 L 2 -19.953125 L 2 -24.5 L 16.234375 -24.5 L 16.234375 -8.609375 C 16.234375 -5.597656 15.488281 -3.335938 14 -1.828125 C 12.507812 -0.328125 10.316406 0.421875 7.421875 0.421875 Z M 7.421875 0.421875 "/></g></g></g><g fill="#ffffff" fill-opacity="1"><g transform="translate(110.438083, 252.217951)"><g><path d="M 14.765625 0.421875 C 12.222656 0.421875 9.929688 -0.125 7.890625 -1.21875 C 5.847656 -2.320312 4.25 -3.832031 3.09375 -5.75 C 1.9375 -7.675781 1.359375 -9.84375 1.359375 -12.25 C 1.359375 -14.65625 1.9375 -16.816406 3.09375 -18.734375 C 4.25 -20.660156 5.847656 -22.171875 7.890625 -23.265625 C 9.929688 -24.367188 12.222656 -24.921875 14.765625 -24.921875 C 17.304688 -24.921875 19.59375 -24.367188 21.625 -23.265625 C 23.65625 -22.171875 25.253906 -20.660156 26.421875 -18.734375 C 27.585938 -16.816406 28.171875 -14.65625 28.171875 -12.25 C 28.171875 -9.84375 27.585938 -7.675781 26.421875 -5.75 C 25.253906 -3.832031 23.65625 -2.320312 21.625 -1.21875 C 19.59375 -0.125 17.304688 0.421875 14.765625 0.421875 Z M 14.765625 -4.40625 C 16.210938 -4.40625 17.519531 -4.738281 18.6875 -5.40625 C 19.851562 -6.070312 20.769531 -7 21.4375 -8.1875 C 22.101562 -9.375 22.4375 -10.726562 22.4375 -12.25 C 22.4375 -13.769531 22.101562 -15.125 21.4375 -16.3125 C 20.769531 -17.5 19.851562 -18.425781 18.6875 -19.09375 C 17.519531 -19.757812 16.210938 -20.09375 14.765625 -20.09375 C 13.316406 -20.09375 12.007812 -19.757812 10.84375 -19.09375 C 9.675781 -18.425781 8.757812 -17.5 8.09375 -16.3125 C 7.4375 -15.125 7.109375 -13.769531 7.109375 -12.25 C 7.109375 -10.726562 7.4375 -9.375 8.09375 -8.1875 C 8.757812 -7 9.675781 -6.070312 10.84375 -5.40625 C 12.007812 -4.738281 13.316406 -4.40625 14.765625 -4.40625 Z M 14.765625 -4.40625 "/></g></g></g><g fill="#ffffff" fill-opacity="1"><g transform="translate(140.356404, 252.217951)"><g><path d="M 2.90625 -24.5 L 8.578125 -24.5 L 8.578125 0 L 2.90625 0 Z M 2.90625 -24.5 "/></g></g></g><g fill="#ffffff" fill-opacity="1"><g transform="translate(152.2188, 252.217951)"><g><path d="M 25.375 -24.5 L 25.375 0 L 20.71875 0 L 8.5 -14.875 L 8.5 0 L 2.90625 0 L 2.90625 -24.5 L 7.59375 -24.5 L 19.78125 -9.625 L 19.78125 -24.5 Z M 25.375 -24.5 "/></g></g></g><g fill="#ffffff" fill-opacity="1"><g transform="translate(180.877402, 252.217951)"><g><path d="M 7.984375 -19.875 L 0.140625 -19.875 L 0.140625 -24.5 L 21.484375 -24.5 L 21.484375 -19.875 L 13.65625 -19.875 L 13.65625 0 L 7.984375 0 Z M 7.984375 -19.875 "/></g></g></g><g fill="#ffffff" fill-opacity="1"><g transform="translate(91.122368, 294.217949)"><g><path d="M 26.453125 -24.5 L 15.859375 0 L 10.25 0 L -0.3125 -24.5 L 5.8125 -24.5 L 13.265625 -7 L 20.828125 -24.5 Z M 26.453125 -24.5 "/></g></g></g><g fill="#ffffff" fill-opacity="1"><g transform="translate(117.611468, 294.217949)"><g><path d="M 21.875 -4.546875 L 21.875 0 L 2.90625 0 L 2.90625 -24.5 L 21.421875 -24.5 L 21.421875 -19.953125 L 8.546875 -19.953125 L 8.546875 -14.625 L 19.921875 -14.625 L 19.921875 -10.21875 L 8.546875 -10.21875 L 8.546875 -4.546875 Z M 21.875 -4.546875 "/></g></g></g><g fill="#ffffff" fill-opacity="1"><g transform="translate(141.476151, 294.217949)"><g><path d="M 25.375 -24.5 L 25.375 0 L 20.71875 0 L 8.5 -14.875 L 8.5 0 L 2.90625 0 L 2.90625 -24.5 L 7.59375 -24.5 L 19.78125 -9.625 L 19.78125 -24.5 Z M 25.375 -24.5 "/></g></g></g><g fill="#ffffff" fill-opacity="1"><g transform="translate(170.134753, 294.217949)"><g><path d="M 7.984375 -19.875 L 0.140625 -19.875 L 0.140625 -24.5 L 21.484375 -24.5 L 21.484375 -19.875 L 13.65625 -19.875 L 13.65625 0 L 7.984375 0 Z M 7.984375 -19.875 "/></g></g></g><g fill="#ffffff" fill-opacity="1"><g transform="translate(192.144865, 294.217949)"><g><path d="M 13.796875 0.421875 C 10.296875 0.421875 7.566406 -0.546875 5.609375 -2.484375 C 3.660156 -4.421875 2.6875 -7.1875 2.6875 -10.78125 L 2.6875 -24.5 L 8.359375 -24.5 L 8.359375 -10.984375 C 8.359375 -6.597656 10.179688 -4.40625 13.828125 -4.40625 C 15.597656 -4.40625 16.945312 -4.9375 17.875 -6 C 18.8125 -7.0625 19.28125 -8.722656 19.28125 -10.984375 L 19.28125 -24.5 L 24.890625 -24.5 L 24.890625 -10.78125 C 24.890625 -7.1875 23.914062 -4.421875 21.96875 -2.484375 C 20.019531 -0.546875 17.296875 0.421875 13.796875 0.421875 Z M 13.796875 0.421875 "/></g></g></g><g fill="#ffffff" fill-opacity="1"><g transform="translate(220.103626, 294.217949)"><g><path d="M 18.515625 0 L 13.796875 -6.828125 L 8.578125 -6.828125 L 8.578125 0 L 2.90625 0 L 2.90625 -24.5 L 13.515625 -24.5 C 15.679688 -24.5 17.5625 -24.132812 19.15625 -23.40625 C 20.757812 -22.6875 21.992188 -21.660156 22.859375 -20.328125 C 23.722656 -19.003906 24.15625 -17.429688 24.15625 -15.609375 C 24.15625 -13.785156 23.71875 -12.210938 22.84375 -10.890625 C 21.96875 -9.578125 20.722656 -8.570312 19.109375 -7.875 L 24.609375 0 Z M 18.40625 -15.609375 C 18.40625 -16.984375 17.960938 -18.035156 17.078125 -18.765625 C 16.191406 -19.503906 14.894531 -19.875 13.1875 -19.875 L 8.578125 -19.875 L 8.578125 -11.34375 L 13.1875 -11.34375 C 14.894531 -11.34375 16.191406 -11.710938 17.078125 -12.453125 C 17.960938 -13.203125 18.40625 -14.253906 18.40625 -15.609375 Z M 18.40625 -15.609375 "/></g></g></g><g fill="#ffffff" fill-opacity="1"><g transform="translate(246.207804, 294.217949)"><g><path d="M 21.875 -4.546875 L 21.875 0 L 2.90625 0 L 2.90625 -24.5 L 21.421875 -24.5 L 21.421875 -19.953125 L 8.546875 -19.953125 L 8.546875 -14.625 L 19.921875 -14.625 L 19.921875 -10.21875 L 8.546875 -10.21875 L 8.546875 -4.546875 Z M 21.875 -4.546875 "/></g></g></g></svg>